<?xml version="1.0" encoding="UTF-8" standalone="no"?>
<svg
   xmlns:dc="http://purl.org/dc/elements/1.1/"
   xmlns:cc="http://creativecommons.org/ns#"
   xmlns:rdf="http://www.w3.org/1999/02/22-rdf-syntax-ns#"
   xmlns:svg="http://www.w3.org/2000/svg"
   xmlns="http://www.w3.org/2000/svg"
   xmlns:sodipodi="http://sodipodi.sourceforge.net/DTD/sodipodi-0.dtd"
   xmlns:inkscape="http://www.inkscape.org/namespaces/inkscape"
   id="Layer_1"
   data-name="Layer 1"
   viewBox="0 0 30 35"
   version="1.1"
   sodipodi:docname="os_lnx_dark.svg"
   inkscape:version="0.92.3 (2405546, 2018-03-11)"
   width="30"
   height="35">
  <metadata
     id="metadata4617">
    <rdf:RDF>
      <cc:Work
         rdf:about="">
        <dc:format>image/svg+xml</dc:format>
        <dc:type
           rdf:resource="http://purl.org/dc/dcmitype/StillImage" />
        <dc:title>arrows</dc:title>
      </cc:Work>
    </rdf:RDF>
  </metadata>
  <sodipodi:namedview
     pagecolor="#ffffff"
     bordercolor="#666666"
     borderopacity="1"
     objecttolerance="10"
     gridtolerance="10"
     guidetolerance="10"
     inkscape:pageopacity="0"
     inkscape:pageshadow="2"
     inkscape:window-width="1920"
     inkscape:window-height="1018"
     id="namedview4615"
     showgrid="false"
     inkscape:zoom="12.708625"
     inkscape:cx="14.22738"
     inkscape:cy="19.509401"
     inkscape:window-x="1912"
     inkscape:window-y="34"
     inkscape:window-maximized="1"
     inkscape:current-layer="Layer_1" />
  <defs
     id="defs4604">
    <style
       id="style4602">.cls-1{fill:#fff;}.cls-2{fill:#444;}</style>
  </defs>
  <title
     id="title4606">arrows</title>
  <g
     transform="matrix(0.03954311,0,0,0.03954311,-14.660795,0.63301023)"
     id="#000000ff"
     style="fill:#eeeeee;fill-opacity:1">
    <path
       style="opacity:1;fill:#eeeeee;fill-opacity:1"
       inkscape:connector-curvature="0"
       d="m 723.65,0 h 52.59 c 2.28,0.64 4.54,1.36 6.84,1.99 14.05,3.36 27.28,9.78 39.3,17.71 17.28,11.84 31.21,28.25 41.13,46.62 6.37,11.93 11.26,24.6 15.4,37.46 7.3,23.79 10.45,48.59 13.23,73.24 0.11,6.66 0.66,13.29 1.22,19.93 0.16,14.68 0.1,29.36 0.07,44.05 -0.4,9.79 3.32,19.04 5.97,28.3 7.72,21.65 19.7,41.98 36,58.29 30.65,31.15 55.39,68.1 72.53,108.29 10.08,23.28 17.13,47.8 22.07,72.66 2.54,12.73 3.57,25.69 5.25,38.55 0.4,12.65 0.19,25.33 0.24,37.99 -0.44,5.57 5.14,8.47 7.71,12.71 6.3,9.95 8.44,22.25 6.76,33.86 -1.39,8.06 -2.1,16.23 -2.61,24.38 -0.47,4.24 2.94,7.34 5.92,9.77 9.39,7.4 19.85,13.33 29.2,20.79 11.41,8.57 21.59,20.75 22.9,35.47 0.11,7.05 1.14,14.64 -2.29,21.13 -3.93,7.6 -10.32,13.82 -17.75,18 -7.44,4.22 -15.27,7.72 -23.32,10.6 -8.72,3.39 -17.84,5.69 -26.36,9.59 -8.04,3.55 -15.54,8.19 -22.75,13.19 -7.09,5.33 -12.38,12.58 -17.98,19.37 -9.54,11.93 -22.13,21.08 -35.51,28.26 -17.64,8.95 -37.64,13.33 -57.4,12.3 -12.87,-0.98 -25.52,-6.67 -34.06,-16.47 -5.3,-5.11 -8.1,-12.04 -10.36,-18.9 -10.49,-1.11 -21.07,-0.26 -31.59,-0.56 -19.67,-0.04 -39.34,0.09 -59,0.03 -7.99,0.05 -16,-0.41 -23.95,0.49 -15.9,1.01 -31.95,2.33 -47.27,6.94 -11.87,3 -23.21,7.65 -34.41,12.5 -7.97,3.25 -13.54,10.63 -21.96,13.03 -10.2,3.85 -21.11,1.43 -31.55,0.28 -6.44,-0.75 -12.54,-3.03 -18.87,-4.34 -7.61,-1.59 -14.89,-4.39 -22.13,-7.16 -16.94,-6.29 -32.01,-17.17 -49.8,-21.22 -7.62,-1.32 -15.42,0.05 -23.07,-1.03 -7.86,-1.15 -15.74,-2.13 -23.59,-3.3 -20,-3.16 -40.59,-7.2 -58.03,-18.06 -9.35,-5.6 -16.37,-15.09 -18.56,-25.81 -2.27,-12.92 4.4,-25.06 4.64,-37.86 -0.05,-8.94 0.73,-18.01 -1.18,-26.82 -2.5,-12.83 -5.34,-25.94 -3.26,-39.03 1.51,-6.84 5.42,-12.97 10.39,-17.82 9.58,-9.11 22.63,-13.25 35.21,-16.26 9.32,-2.38 19.3,-2.42 28.09,-6.64 2.63,-1.15 3.11,-4.26 3.76,-6.73 1.23,-6.03 1.86,-12.23 3.93,-18.06 3.53,-10.14 10.24,-19.07 18.74,-25.57 2.28,-1.91 5.08,-3.58 6.19,-6.49 1.64,-4.41 2.22,-9.1 3.31,-13.65 10.97,-47.91 26,-94.9 44.9,-140.27 6.77,-15.75 13.34,-31.61 21.12,-46.91 4.72,-9.28 9.06,-18.77 14.25,-27.8 18.07,-29.53 30.53,-62.5 36.55,-96.59 2.13,-7.98 3.14,-16.2 3.22,-24.46 1.39,-10.6 0.72,-21.31 0.96,-31.96 -0.01,-13.05 1.65,-26 2.25,-39.02 1.59,-12.61 2.52,-25.34 5.24,-37.79 4.33,-23.41 11.25,-46.77 23.82,-67.16 8.6,-13.82 20.52,-25.8 35.2,-33.06 C 701.19,5.26 712.52,2.66 723.65,0 M 773,111.16 c -12.71,7.95 -18.66,22.96 -21.23,37.12 -0.56,7.24 -0.22,14.52 -0.19,21.77 0.47,12.36 6.61,23.67 14.6,32.81 2.26,2.46 5.44,3.68 8.35,5.18 -4.59,-6.37 -7.81,-14.09 -7.17,-22.08 0.53,-8.43 2.69,-17.58 9.23,-23.42 3.36,-2.32 7.74,-5.12 11.9,-3.26 7.43,2.83 12.33,10.19 13.95,17.75 0.6,5.31 0.31,10.67 0.32,16.01 0.09,5.05 -2.73,9.43 -4.6,13.94 2.9,-1.17 5.91,-2.41 8.14,-4.7 7.08,-7.18 10.64,-16.97 12.76,-26.64 1.73,-7.77 1.36,-15.77 1.23,-23.66 -0.67,-7.02 -2.73,-13.83 -5.11,-20.43 -3.93,-10.5 -12.06,-19.85 -22.92,-23.38 -6.48,-1.29 -13.66,-0.88 -19.26,2.99 m -100.58,-2.42 c -6.3,1.65 -11.75,5.81 -15.67,10.92 -6.69,8.79 -10.22,19.57 -12.01,30.36 -0.18,6.93 -0.34,13.9 0.1,20.82 2.09,10.56 5.2,21.54 12.68,29.65 2.01,2.39 4.68,4.08 7.46,5.45 -1.21,-4.74 -3.36,-9.19 -4.27,-14 -0.85,-5.78 0.24,-11.64 1.84,-17.19 1.8,-5.58 4.99,-11.16 10.29,-14.05 2.61,-1.3 5.7,-2.66 8.61,-1.42 6.98,1.92 11.23,8.51 13.59,14.94 2.17,5.32 1.52,11.19 1.6,16.8 0.23,5.69 -2.99,10.6 -4.63,15.85 4.27,-2.07 8.18,-4.97 11,-8.84 6.69,-8.53 8.44,-19.57 9.92,-30.01 1.34,-8.93 -0.12,-17.93 -1.62,-26.75 -1.66,-9.04 -5.57,-17.88 -12.2,-24.37 -4.03,-4.19 -9.08,-8.09 -15.11,-8.44 -3.86,-0.16 -7.76,-0.33 -11.58,0.28 m 51.86,107.14 c -17.83,3.28 -35.11,10.58 -49.16,22.16 -3.6,2.84 -7.43,5.53 -10.19,9.25 -1.7,1.86 0.89,3.5 1.92,4.9 11.06,11.15 24.09,20.46 38.56,26.65 3.13,1.33 6.18,3.12 9.6,3.6 3.68,-0.21 7.21,-1.47 10.78,-2.34 19.51,-5.18 38.29,-13.12 55.46,-23.75 4.67,-2.98 9.61,-5.65 13.84,-9.27 0.93,-0.97 2.59,-2.11 1.44,-3.57 -1.86,-2.56 -4.62,-4.25 -7.18,-6.03 -13.55,-8.87 -28.32,-16.07 -44.09,-19.99 -6.77,-2.08 -13.98,-2.92 -20.98,-1.61 m 52.56,83.8 c -18.97,8.67 -38.63,15.86 -58.84,21.01 -2.06,0.5 -4.22,0.86 -6.31,0.33 -22.53,-4.93 -43.26,-16.22 -60.94,-30.87 -3.39,5.98 -5.3,12.62 -7.99,18.92 -7.23,17 -14.72,33.94 -23.72,50.09 -3.96,7.2 -7.03,14.84 -10.97,22.04 -10.42,19.4 -18.48,39.94 -26.86,60.27 -16.46,41.83 -29.66,84.95 -39.4,128.83 -1.48,3.96 1.88,6.94 4.22,9.65 12.21,12.82 21.59,28.22 28.09,44.65 2.48,6.21 4.45,12.64 7.47,18.63 9.59,20.17 22.56,39.02 39.45,53.75 14.93,10.95 27.57,24.98 36.96,40.93 2.56,4.49 8.46,4.29 12.97,4.71 7.43,-0.34 14.6,2.17 22.02,1.99 13.34,0.02 26.67,-0.01 40,0.01 8.07,0.19 15.93,-2.04 23.98,-2.15 9.44,-1.36 18.88,-2.84 28.2,-4.9 25.95,-6.29 51.76,-16.46 71.82,-34.59 1.46,-1.35 2.81,-2.97 3.07,-5.02 1.55,-11.66 1.12,-23.58 4.18,-35.02 4.58,-22.62 12.88,-44.44 24.3,-64.48 3.51,-5.53 1.67,-12.32 2.07,-18.46 0.43,-9.37 -1.44,-18.63 -0.96,-28 0.46,-8.76 -2.18,-17.28 -2.04,-26.03 -2.47,-27.01 -6.64,-53.87 -12.64,-80.34 -9.04,-42.64 -22.95,-84.16 -40.35,-124.08 -6.39,-14.04 -12.76,-28.16 -20.45,-41.54 -12.35,6.73 -24.36,14.16 -37.33,19.67 M 510.12,622.82 c -1.49,10.49 -5.97,20.5 -12.57,28.75 -9.14,9.33 -22.16,13.62 -34.75,15.83 -10.45,1.4 -20.9,3.72 -30.39,8.44 -1.29,12.61 4.16,24.59 4.15,37.13 0.09,11.32 0.3,22.66 -0.2,33.97 -0.34,6.56 -3.06,12.72 -3.16,19.3 2.88,1.9 5.89,3.66 9.21,4.69 15.08,5.12 31.12,5.86 46.74,8.35 4.32,0.41 8.69,0.25 12.99,0.97 9.6,1.27 19.6,-1.2 28.93,2.08 11.28,3.59 22.02,8.7 32.39,14.38 15.93,8.26 33.07,14.2 50.71,17.51 4.25,0.61 8.52,1.85 12.86,1.34 4.77,-2.25 6.29,-7.93 7.23,-12.69 2.8,-28.53 -11.24,-58.25 -35.53,-73.68 -4.4,-2.81 -7.77,-6.84 -11.4,-10.52 -17.55,-16.11 -30.9,-36.39 -41.02,-57.84 -5.28,-10.9 -8.55,-22.72 -14.81,-33.15 -3.48,-6.06 -7.49,-11.8 -11.61,-17.43 -1.09,-1.45 -2.27,-2.89 -3.87,-3.79 -4.27,4.28 -4.8,10.73 -5.9,16.36 M 906.7,661.1 c -1.55,3.49 -1.35,7.37 -2.02,11.07 -1.68,9.5 -1.88,19.19 -3.33,28.72 -1.36,6.51 -0.63,13.24 -2.2,19.73 -1.33,11.48 -1.78,23.06 -3.46,34.51 -0.54,4.42 -0.11,8.9 -0.69,13.32 -0.7,5.5 -1.71,10.99 -1.56,16.56 0.12,6.96 -0.47,13.96 0.22,20.91 0.7,5.03 4.95,8.84 9.76,9.96 7.71,1.83 15.58,-0.36 23.12,-2 17.83,-4.18 33.6,-15.29 44.63,-29.78 4.48,-6.08 10.1,-11.17 15.47,-16.45 15.07,-12.76 32.9,-22.01 51.64,-28.1 9.26,-2.97 18.5,-6.26 26.92,-11.2 1.11,-0.78 2.89,-1.63 2.43,-3.31 -2.07,-2.87 -5.12,-4.77 -7.9,-6.86 -8.67,-6.42 -18.13,-11.69 -26.67,-18.28 -6.52,-5.37 -13.62,-10.47 -17.88,-17.95 -3.47,-5.45 -4.84,-11.81 -6.98,-17.81 -4.62,2.22 -8.78,5.3 -13.5,7.32 -4.34,1.89 -8.87,3.29 -13.41,4.57 -6.91,2.04 -14.2,1.25 -21.29,1.33 -11.39,-0.39 -23.36,1.31 -34.09,-3.52 -7.32,-2.74 -13.13,-8.03 -19.21,-12.74 z"
       id="path9182" />
  </g>
</svg>
