<?xml version="1.0" encoding="UTF-8" standalone="no"?>
<svg
   xmlns:dc="http://purl.org/dc/elements/1.1/"
   xmlns:cc="http://creativecommons.org/ns#"
   xmlns:rdf="http://www.w3.org/1999/02/22-rdf-syntax-ns#"
   xmlns:svg="http://www.w3.org/2000/svg"
   xmlns="http://www.w3.org/2000/svg"
   xmlns:sodipodi="http://sodipodi.sourceforge.net/DTD/sodipodi-0.dtd"
   xmlns:inkscape="http://www.inkscape.org/namespaces/inkscape"
   id="Layer_1"
   data-name="Layer 1"
   viewBox="0 0 30 30"
   version="1.1"
   sodipodi:docname="os_android_dark.svg"
   inkscape:version="0.92.3 (2405546, 2018-03-11)"
   width="30"
   height="30">
  <metadata
     id="metadata4617">
    <rdf:RDF>
      <cc:Work
         rdf:about="">
        <dc:format>image/svg+xml</dc:format>
        <dc:type
           rdf:resource="http://purl.org/dc/dcmitype/StillImage" />
        <dc:title>arrows</dc:title>
      </cc:Work>
    </rdf:RDF>
  </metadata>
  <sodipodi:namedview
     pagecolor="#ffffff"
     bordercolor="#666666"
     borderopacity="1"
     objecttolerance="10"
     gridtolerance="10"
     guidetolerance="10"
     inkscape:pageopacity="0"
     inkscape:pageshadow="2"
     inkscape:window-width="1920"
     inkscape:window-height="1018"
     id="namedview4615"
     showgrid="false"
     inkscape:zoom="15.090856"
     inkscape:cx="14.937631"
     inkscape:cy="14.937631"
     inkscape:window-x="1912"
     inkscape:window-y="34"
     inkscape:window-maximized="1"
     inkscape:current-layer="Layer_1" />
  <defs
     id="defs4604">
    <style
       id="style4602">.cls-1{fill:#fff;}.cls-2{fill:#444;}</style>
  </defs>
  <title
     id="title4606">arrows</title>
  <g
     transform="matrix(0.03482471,0,0,0.03482471,-0.65435666,-1.9987354)"
     id="#000000ff"
     style="fill:#eeeeee;fill-opacity:1">
    <path
       style="opacity:1;fill:#eeeeee;fill-opacity:1"
       inkscape:connector-curvature="0"
       d="m 280.31,0 h 4.35 c 5.34,2.75 7.94,8.36 11.21,13.06 11.54,17.18 22.89,34.5 34.39,51.71 2.25,3.21 4.05,6.77 6.78,9.62 68.96,-25.93 147,-27.53 216.61,-3.06 3.02,0.98 5.92,2.58 9.14,2.81 15.83,-23.04 31.08,-46.5 46.7,-69.7 1.39,-2.09 3.61,-3.37 5.82,-4.44 h 4.31 c 2.58,1.4 5.41,3.02 6.42,5.97 1.67,3.45 0.15,7.3 -1.84,10.24 -12.98,19.36 -25.81,38.82 -38.76,58.2 -1.67,2.43 -3.4,4.83 -4.63,7.51 0.46,0.34 1.37,1.03 1.83,1.37 29.97,14.11 57.52,33.71 79.9,58.19 24.65,26.98 42.84,60.34 49.67,96.4 1.97,11.16 3.69,22.55 2.91,33.9 -176.67,0.1 -353.34,0.06 -530,0.02 -0.82,-16.35 2.1,-32.68 6.24,-48.44 9.36,-33.97 28.74,-64.65 53.48,-89.53 19.8,-19.6 42.85,-35.86 67.81,-48.23 2.25,-1.11 4.64,-2.02 6.6,-3.64 -2.84,-5.39 -6.65,-10.19 -9.9,-15.34 -11.8,-16.94 -23.1,-34.23 -34.57,-51.4 -2.08,-2.94 -2.55,-7.05 -0.83,-10.27 1.34,-2.46 3.93,-3.79 6.36,-4.95 m 51.07,139.45 c -7.97,1.49 -15.43,6.27 -19.54,13.35 -4.47,7.28 -5.3,16.63 -2.37,24.62 4.53,13.35 20.01,21.53 33.59,17.8 14.37,-3.14 24.51,-18.89 21.07,-33.26 -2.57,-14.67 -18.14,-25.37 -32.75,-22.51 m 228.91,-0.15 c -11.57,1.33 -21.68,10.39 -24.22,21.76 -2.83,10.93 1.91,23.27 11.14,29.71 7.66,5.5 18.19,6.98 26.96,3.35 5.64,-2.12 10.47,-6.19 13.71,-11.27 4.83,-7.36 5.62,-17.09 2.56,-25.28 -4.2,-12.11 -17.53,-20.04 -30.15,-18.27 z"
       id="path852" />
    <path
       style="opacity:1;fill:#eeeeee;fill-opacity:1"
       inkscape:connector-curvature="0"
       d="m 82.36,310.4 c 14.27,-1.95 29.16,1.99 40.75,10.5 11.9,8.64 20.21,22.12 22.45,36.67 0.81,5.1 0.76,10.28 0.76,15.43 -0.03,78.99 0.02,157.99 -0.03,236.98 0.16,16.23 -7.11,32.27 -19.39,42.87 -10.06,8.99 -23.47,13.75 -36.88,14.16 C 75.35,666.83 60.6,661.25 50.17,650.8 38.85,640.16 32.44,624.51 32.96,608.99 32.99,527.33 32.97,445.66 32.97,364 c 0.5,-15.4 7.93,-30.37 19.66,-40.32 8.28,-7.31 18.84,-11.76 29.73,-13.28 z"
       id="path854" />
    <path
       style="opacity:1;fill:#eeeeee;fill-opacity:1"
       inkscape:connector-curvature="0"
       d="m 184.89,310.07 c 135.36,-0.18 270.74,-0.02 406.11,-0.08 41.39,0.07 82.78,-0.11 124.16,0.09 0.52,15.96 0.06,31.95 0.22,47.92 -0.01,120.34 0,240.67 0,361 -0.02,6.98 0.28,14.07 -1.36,20.91 -3.09,14.23 -11.52,27.33 -23.44,35.74 -10.52,7.61 -23.57,11.92 -36.58,11.37 -13.92,0.03 -27.85,-0.12 -41.77,0.06 1.01,4.93 2.07,9.87 1.87,14.94 0.11,40.32 0.05,80.64 0.03,120.97 0.43,18.64 -9.46,36.91 -24.89,47.25 -12.19,8.21 -27.72,11.72 -42.18,8.69 -21.47,-3.72 -39.71,-21.11 -44.67,-42.29 -1.83,-6.73 -1.5,-13.74 -1.55,-20.64 0.04,-37.99 -0.06,-75.98 0.05,-113.97 -0.18,-5.07 1.05,-9.99 1.99,-14.91 -35.24,-0.18 -70.49,-0.22 -105.72,0.02 1,4.9 2.15,9.82 1.95,14.88 0.08,40.65 0.07,81.31 0.01,121.96 0.17,19.55 -11.19,38.35 -27.94,48.17 -12.62,7.42 -28.2,9.85 -42.4,6.09 -24.3,-5.71 -43.25,-29.18 -42.89,-54.27 -0.08,-40.65 -0.07,-81.3 0,-121.95 -0.18,-5.07 1.06,-9.99 2.02,-14.92 -13.97,-0.23 -27.94,-0.04 -41.91,-0.08 -17.08,0.61 -34.14,-6.87 -45.65,-19.43 -10,-10.99 -15.81,-25.71 -15.64,-40.6 -0.05,-135.66 0,-271.32 -0.02,-406.99 -0.01,-3.31 -0.14,-6.63 0.2,-9.93 z"
       id="path856" />
    <path
       style="opacity:1;fill:#eeeeee;fill-opacity:1"
       inkscape:connector-curvature="0"
       d="m 803.35,310.38 c 16.61,-2.23 34.07,3.56 46.09,15.23 10.5,9.89 17.08,23.94 17.59,38.39 -0.01,81.66 -0.02,163.33 0.01,245 0.53,15.76 -6.09,31.62 -17.69,42.3 -10.38,10.21 -24.93,15.5 -39.37,15.7 -13.41,-0.43 -26.81,-5.13 -36.86,-14.16 -12.66,-10.73 -19.82,-27.31 -19.4,-43.86 -0.06,-80.32 -0.04,-160.65 -0.01,-240.97 -0.31,-13.74 4.38,-27.54 13.39,-37.97 9,-10.84 22.3,-17.9 36.25,-19.66 z"
       id="path858" />
  </g>
</svg>
