<?xml version="1.0" encoding="UTF-8" standalone="no"?>
<svg
   xmlns:dc="http://purl.org/dc/elements/1.1/"
   xmlns:cc="http://creativecommons.org/ns#"
   xmlns:rdf="http://www.w3.org/1999/02/22-rdf-syntax-ns#"
   xmlns:svg="http://www.w3.org/2000/svg"
   xmlns="http://www.w3.org/2000/svg"
   xmlns:sodipodi="http://sodipodi.sourceforge.net/DTD/sodipodi-0.dtd"
   xmlns:inkscape="http://www.inkscape.org/namespaces/inkscape"
   id="Layer_1"
   data-name="Layer 1"
   viewBox="0 0 30 30"
   version="1.1"
   sodipodi:docname="os_ios_dark.svg"
   inkscape:version="0.92.3 (2405546, 2018-03-11)"
   width="30"
   height="30">
  <metadata
     id="metadata4617">
    <rdf:RDF>
      <cc:Work
         rdf:about="">
        <dc:format>image/svg+xml</dc:format>
        <dc:type
           rdf:resource="http://purl.org/dc/dcmitype/StillImage" />
        <dc:title></dc:title>
      </cc:Work>
    </rdf:RDF>
  </metadata>
  <sodipodi:namedview
     pagecolor="#ffffff"
     bordercolor="#666666"
     borderopacity="1"
     objecttolerance="10"
     gridtolerance="10"
     guidetolerance="10"
     inkscape:pageopacity="0"
     inkscape:pageshadow="2"
     inkscape:window-width="2560"
     inkscape:window-height="1378"
     id="namedview4615"
     showgrid="true"
     inkscape:zoom="29.238668"
     inkscape:cx="15.409065"
     inkscape:cy="15.842857"
     inkscape:window-x="1912"
     inkscape:window-y="-8"
     inkscape:window-maximized="1"
     inkscape:current-layer="Layer_1"
     inkscape:measure-start="0,0"
     inkscape:measure-end="0,0">
    <inkscape:grid
       type="xygrid"
       id="grid1452" />
  </sodipodi:namedview>
  <defs
     id="defs847">
    <style
       id="style845">
          #path_main{
            stroke: #969696;
            stroke-width: 0;
            cursor: pointer;
            transition: .2s ease-in-out;
            fill: #eeeeee;
          }
          #path_main:hover{
            fill: #eeeeee;
            stroke: #0080fc;
            stroke-width: 0;
          }
          #path_main:active{
            fill: #eeeeee;
            stroke: #0080fc;
            stroke-width: 0;
          }
      </style>
  </defs>
  <g
     transform="matrix(0.16656488,0,0,0.16651492,-2.0254289,-0.68642417)"
     id="#ffffffff"
     style="fill:#eeeeee;fill-opacity:1">
    <path
       style="opacity:1;fill:#eeeeee;fill-opacity:1"
       inkscape:connector-curvature="0"
       d="m 49.37,4.5 c 32.84,-0.78 65.75,-0.06 98.62,-0.36 15.41,-0.42 30.31,8.62 37.95,21.87 5.09,7.97 6.19,17.71 6.33,26.98 -0.02,27.67 0,55.35 -0.01,83.02 -0.26,8.69 -1.28,17.81 -5.96,25.34 -6.14,10.9 -17.04,19.23 -29.37,21.64 -7.52,1.68 -15.28,1.23 -22.93,1.27 -22,0.01 -44,0 -66,0 -7.28,0 -14.68,0.3 -21.81,-1.46 C 27.56,178.77 12.53,161.21 12.16,142.02 12.2,109.66 12.15,77.3 12.18,44.94 13.23,24.96 29.65,7.41 49.37,4.5 M 38.35,63.34 c -3.91,2.32 -2.58,7.32 0.46,9.74 2.03,-0.45 4.75,0.81 6.2,-1.07 3.36,-2.01 2.35,-6.8 -0.36,-9 -2.08,0.02 -4.31,-0.5 -6.3,0.33 m 45,2.09 c -7.83,1.2 -15.05,6.25 -18.38,13.52 -5.1,11.15 -4.76,24.92 1.58,35.51 9.5,15.17 35.31,14.94 44.36,-0.59 6.62,-11.77 6.41,-27.39 -1.02,-38.75 C 104.14,66.7 93.01,63.87 83.35,65.43 m 58.98,-0.04 c -4.71,0.72 -9.44,2.7 -12.58,6.42 -5.55,6.28 -5.2,17.52 1.99,22.45 7.31,5.46 17.33,4.19 24.86,9.12 4.33,2.93 2.94,9.62 -1.39,11.81 -7.31,3.9 -18.99,2.33 -21.82,-6.54 -3.01,-0.18 -6.02,-0.25 -9.03,-0.08 0.37,7.29 5.79,13.36 12.58,15.55 8.04,2.41 17.43,2.13 24.62,-2.56 8.47,-5.32 10.19,-19.76 1.66,-25.81 -6.55,-4.73 -14.99,-4.83 -22.31,-7.67 -2.55,-1.04 -5.5,-2.96 -5.39,-6.08 -0.32,-4.61 4.1,-7.88 8.27,-8.43 6.4,-1.63 13.53,1.89 15.49,8.35 2.91,0 5.82,0.02 8.73,-0.11 C 167.22,69.42 153.4,63.06 142.33,65.39 M 37.05,80.63 c -0.19,14.55 -0.29,29.11 0.06,43.65 2.89,-0.07 5.78,-0.08 8.68,-0.07 0.19,-14.51 0.1,-29.03 0.05,-43.54 -2.93,-0.06 -5.86,-0.06 -8.79,-0.04 z"
       id="path875" />
    <path
       style="opacity:1;fill:#eeeeee;fill-opacity:1"
       inkscape:connector-curvature="0"
       d="m 84.32,74.42 c 5.12,-0.87 11.05,-0.53 14.98,3.28 6.03,5.13 6.93,13.78 6.34,21.18 -0.42,6.71 -3.79,13.76 -10.24,16.53 -8.71,4.18 -20.03,-0.9 -22.58,-10.26 C 69.05,94.29 71.4,77.66 84.32,74.42 Z"
       id="path877" />
  </g>
</svg>
