<?xml version="1.0" encoding="UTF-8" standalone="no"?>
<svg
   xmlns:dc="http://purl.org/dc/elements/1.1/"
   xmlns:cc="http://creativecommons.org/ns#"
   xmlns:rdf="http://www.w3.org/1999/02/22-rdf-syntax-ns#"
   xmlns:svg="http://www.w3.org/2000/svg"
   xmlns="http://www.w3.org/2000/svg"
   xmlns:sodipodi="http://sodipodi.sourceforge.net/DTD/sodipodi-0.dtd"
   xmlns:inkscape="http://www.inkscape.org/namespaces/inkscape"
   id="Layer_1"
   data-name="Layer 1"
   viewBox="0 0 30 30"
   version="1.1"
   sodipodi:docname="os_mac_dark.svg"
   inkscape:version="0.92.3 (2405546, 2018-03-11)"
   width="30"
   height="30">
  <metadata
     id="metadata4617">
    <rdf:RDF>
      <cc:Work
         rdf:about="">
        <dc:format>image/svg+xml</dc:format>
        <dc:type
           rdf:resource="http://purl.org/dc/dcmitype/StillImage" />
        <dc:title>arrows</dc:title>
      </cc:Work>
    </rdf:RDF>
  </metadata>
  <sodipodi:namedview
     pagecolor="#ffffff"
     bordercolor="#666666"
     borderopacity="1"
     objecttolerance="10"
     gridtolerance="10"
     guidetolerance="10"
     inkscape:pageopacity="0"
     inkscape:pageshadow="2"
     inkscape:window-width="1920"
     inkscape:window-height="1018"
     id="namedview4615"
     showgrid="false"
     inkscape:zoom="10.11341"
     inkscape:cx="11.313709"
     inkscape:cy="1.0606602"
     inkscape:window-x="1912"
     inkscape:window-y="34"
     inkscape:window-maximized="1"
     inkscape:current-layer="Layer_1" />
  <defs
     id="defs4604">
    <style
       id="style4602">.cls-1{fill:#fff;}.cls-2{fill:#444;}</style>
  </defs>
  <title
     id="title4606">arrows</title>
  <g
     transform="matrix(0.07571948,0,0,0.07571948,-3.1560899,-3.8161967)"
     id="#000002ff"
     style="fill:#eeeeee;fill-opacity:1">
    <path
       style="opacity:1;fill:#eeeeee;fill-opacity:1"
       inkscape:connector-curvature="0"
       d="m 299.22,55.31 c 4.13,-0.94 8.41,-2.27 12.67,-1.49 2.43,19.1 -3.08,38.64 -13.31,54.76 -10.7,17.68 -28.12,31.25 -48.01,36.96 -6.18,1.74 -12.65,2.52 -19.07,2.19 -2.72,-18.84 3.22,-37.94 13.63,-53.57 12.31,-19.15 32.31,-32.75 54.09,-38.85 z"
       id="path7418" />
    <path
       style="opacity:1;fill:#eeeeee;fill-opacity:1"
       inkscape:connector-curvature="0"
       d="m 116.84,162.85 c 16.99,-12.13 38.08,-19.21 59.07,-17.41 16.28,1.29 31.41,7.93 46.78,12.9 9.49,3.09 19.63,4.35 29.56,3.03 8.76,-1.34 17.05,-4.6 25.29,-7.74 11.97,-4.55 24.5,-8.12 37.39,-8.39 31.29,-1.65 61.04,15.77 80.03,39.79 -12.39,7.07 -23.57,16.59 -31.25,28.71 -12.09,18.63 -16.29,42.22 -11.41,63.87 4.1,20.38 15.79,39.14 32.41,51.66 6.52,4.99 13.85,8.76 21.41,11.92 -1.43,5.12 -4.19,9.71 -6.33,14.54 -7.03,15.29 -16.11,29.53 -25.71,43.32 -9.12,12.94 -19.09,25.59 -31.78,35.24 -8.73,6.52 -19.17,11.51 -30.26,11.52 -8.44,0.27 -16.75,-2.03 -24.37,-5.51 -9.53,-4.29 -19.17,-8.88 -29.67,-10.14 -16.86,-2.47 -34.33,-0.01 -49.78,7.18 -9.79,4.63 -20.18,9 -31.24,8.5 -14.18,0.21 -27.19,-7.17 -37.51,-16.34 C 126.34,417.71 116.15,403.13 106.62,388.4 88.87,360.35 76.4,328.83 71.17,296 68.7,282.13 70.09,268 69.71,254 c -0.58,-12.74 2.41,-25.28 6.14,-37.36 7.33,-21.77 22.41,-40.5 40.99,-53.79 z"
       id="path7420" />
  </g>
</svg>
