<?xml version="1.0" encoding="UTF-8" standalone="no"?>
<svg
   xmlns:dc="http://purl.org/dc/elements/1.1/"
   xmlns:cc="http://creativecommons.org/ns#"
   xmlns:rdf="http://www.w3.org/1999/02/22-rdf-syntax-ns#"
   xmlns:svg="http://www.w3.org/2000/svg"
   xmlns="http://www.w3.org/2000/svg"
   xmlns:sodipodi="http://sodipodi.sourceforge.net/DTD/sodipodi-0.dtd"
   xmlns:inkscape="http://www.inkscape.org/namespaces/inkscape"
   id="Layer_1"
   data-name="Layer 1"
   viewBox="0 0 30 30"
   version="1.1"
   sodipodi:docname="os_win.svg"
   inkscape:version="0.92.3 (2405546, 2018-03-11)"
   width="30"
   height="30">
  <metadata
     id="metadata4617">
    <rdf:RDF>
      <cc:Work
         rdf:about="">
        <dc:format>image/svg+xml</dc:format>
        <dc:type
           rdf:resource="http://purl.org/dc/dcmitype/StillImage" />
        <dc:title>arrows</dc:title>
      </cc:Work>
    </rdf:RDF>
  </metadata>
  <sodipodi:namedview
     pagecolor="#ffffff"
     bordercolor="#666666"
     borderopacity="1"
     objecttolerance="10"
     gridtolerance="10"
     guidetolerance="10"
     inkscape:pageopacity="0"
     inkscape:pageshadow="2"
     inkscape:window-width="1920"
     inkscape:window-height="1018"
     id="namedview4615"
     showgrid="false"
     inkscape:zoom="16"
     inkscape:cx="10.520684"
     inkscape:cy="15.622076"
     inkscape:window-x="1912"
     inkscape:window-y="34"
     inkscape:window-maximized="1"
     inkscape:current-layer="Layer_1" />
  <defs>
      <style>
          #path_main{
            stroke: #969696;
            stroke-width: 0;
            cursor: pointer;
            transition: .2s ease-in-out;
            fill: #eeeeee;
          }
          #path_main:hover{
            fill: #eeeeee;
            stroke: #0080fc;
            stroke-width: 0;
          }
          #path_main:active{
            fill: #eeeeee;
            stroke: #0080fc;
            stroke-width: 0;
          }
      </style>
  </defs>
    <a id="path_main">
  <title
     id="title4606">DiveProMe Windows</title>

  <g
     id="000000ff"
     transform="matrix(0.08074894,0,0,0.08074894,0.2431982,-1.4291968)"
     >

    <path
       d="m 338.71,25.41 c 1.98,-0.21 4.09,-1.2 6.04,-0.48 2.36,1.03 1.89,3.93 2.06,6.02 -0.04,52.37 -0.01,104.75 -0.02,157.12 -0.05,1.71 -0.16,3.45 -0.63,5.1 -4.44,2.01 -9.45,1.07 -14.17,1.3 -26.99,0.21 -54,-0.06 -80.99,0.71 -28.36,0.1 -56.7,-0.39 -85.03,-0.06 -3.43,0.13 -6.88,0.8 -10.29,0.29 -1.72,-1.21 -1.23,-3.54 -1.43,-5.35 0.01,-38.69 0.03,-77.37 -0.01,-116.06 0.08,-3.73 -0.31,-7.55 0.58,-11.21 4.33,-2.69 9.71,-2.9 14.6,-4.02 7.33,-0.39 14.36,-2.6 21.59,-3.67 26.35,-5.25 52.7,-10.42 78.98,-15.99 8.94,-1.06 17.56,-3.79 26.42,-5.32 14.17,-2.48 28.08,-6.2 42.3,-8.38 z"
       id="path_"
       fill="#eeeeee"
       inkscape:connector-curvature="0"
    />
    <path
       d="m 112.81,70.05 c 6.9,-1.48 13.94,-2.74 20.98,-3.14 0.35,0.19 1.04,0.59 1.38,0.79 0.4,1.37 0.46,2.81 0.51,4.23 -0.05,39.7 -0.01,79.4 -0.02,119.09 0.04,2.13 -0.31,5.27 -3.06,5.37 -8.51,0.57 -17.07,0.17 -25.6,0.34 -7.68,-0.28 -15.32,0.77 -23,0.63 -20.01,-0.03 -40.02,-0.02 -60.03,0.06 -2.16,-0.03 -4.41,-0.06 -6.41,-0.97 -1.35,-1.45 -1.03,-3.59 -1.18,-5.39 0.11,-32.33 -0.06,-64.67 0.09,-96.99 -0.39,-3.14 2.44,-5.03 5.15,-5.58 11.12,-2.51 22.51,-3.61 33.53,-6.56 6.26,-1.66 12.77,-1.95 19.03,-3.59 12.79,-3.16 25.86,-5.01 38.63,-8.29 z"
       id="path_"
       inkscape:connector-curvature="0"
       fill="#eeeeee"
    />
    <path
       d="m 16.78,215.67 c 0.64,-2.81 3.98,-2.21 6.15,-2.41 10.69,0.06 21.38,0.11 32.07,0.16 5.36,0.05 10.77,-0.34 16.07,0.68 3.27,0.59 6.6,0.68 9.92,0.67 15.01,-0.08 30.01,0.03 45.02,-0.07 2.74,0.06 5.63,-0.05 8.17,1.15 1.83,0.98 1.26,3.36 1.5,5.07 -0.04,39.38 -0.02,78.77 -0.01,118.15 -0.04,1.41 -0.13,2.83 -0.45,4.21 -4.13,2.58 -8.86,-0.62 -13.23,-0.92 -8.18,-0.89 -16.08,-3.18 -24.1,-4.82 -12.22,-1.53 -23.98,-5.33 -36.09,-7.43 -5.4,-0.64 -10.69,-1.86 -15.96,-3.15 -9,-2.44 -18.48,-2.67 -27.39,-5.51 -2.05,-0.94 -2.01,-3.46 -2.06,-5.37 0.03,-30.03 0.03,-60.05 0.01,-90.08 0.06,-3.44 -0.29,-6.93 0.38,-10.33 z"
       id="path_"
       inkscape:connector-curvature="0"
       fill="#eeeeee"
    />
    <path
       d="m 155.78,215.8 c 3.88,-1.52 8.15,-0.99 12.22,-1.09 7.01,-0.14 13.99,0.63 21,0.55 32.01,0.06 64.01,0.41 96.02,0.44 6.05,-0.01 11.93,1.85 17.99,1.72 12.01,-0.06 24.03,0.01 36.05,-0.06 2.03,0.04 4.12,-0.03 6.11,0.52 1.81,1.46 1.49,3.98 1.64,6.05 -0.04,52.05 -0.02,104.09 -0.01,156.14 -0.05,1.76 -0.14,3.54 -0.54,5.27 -7.68,1.55 -15.15,-2.03 -22.75,-2.7 -16.95,-3.72 -34.12,-6.49 -50.96,-10.7 -10.95,-1.29 -21.53,-4.53 -32.42,-6.1 -15.77,-3.74 -31.64,-6.9 -47.59,-9.73 -6.91,-2.05 -14.22,-1.8 -21.17,-3.66 -4.37,-1.13 -8.93,-1.4 -13.25,-2.75 -1.47,-0.55 -3.4,-1.28 -3.55,-3.1 -0.58,-3.84 -0.26,-7.74 -0.32,-11.6 0.02,-38.02 0.01,-76.04 0,-114.06 0.25,-1.73 -0.32,-4.15 1.53,-5.14 z"
       id="path_"
       inkscape:connector-curvature="0"
       fill="#eeeeee"
        />
  </g>
    </a>
</svg>

